<?xml version="1.0" encoding="utf-8"?>
<!-- Generator: Adobe Illustrator 19.0.0, SVG Export Plug-In . SVG Version: 6.00 Build 0)  -->
<svg version="1.1" id="Layer_1" xmlns="http://www.w3.org/2000/svg" xmlns:xlink="http://www.w3.org/1999/xlink" x="0px" y="0px"
	 viewBox="-66 325.9 478.1 142.1" style="enable-background:new -66 325.9 478.1 142.1;" xml:space="preserve">
<style type="text/css">
	.st0{fill:#3E0DB7;}
	.st1{fill:#EDEDED;}
	.st2{fill:#6300FF;}
	.st3{fill:none;}
	.st4{fill:#FFFFFF;}
	.st5{font-family:'JustAnotherHand-Regular';}
	.st6{font-size:42px;}
	.st7{fill:#803EFF;}
</style>
<g id="XMLID_2_">
	<g id="XMLID_12_">
		<g id="XMLID_13_">
			<g id="XMLID_19_">
				<g id="XMLID_20_">
					<g id="XMLID_21_">
						<g id="XMLID_73_">
							<path id="XMLID_76_" class="st0" d="M-38,452.8c-6.5,0-11.7-6.3-11.7-14.1V355c-0.1-7.8,5.2-14.1,11.7-14.1h424.4
								c6.5,0,11.7,6.3,11.7,14.1v83.7c0,7.8-5.2,14.1-11.7,14.1C386.4,452.8-38,452.8-38,452.8z"/>
						</g>
					</g>
				</g>
			</g>
			<g id="XMLID_15_">
				<path id="XMLID_16_" class="st1" d="M323.9,443.2v-38.8h-362c-4.1,0-7.5-3.4-7.5-7.5s3.4-7.5,7.5-7.5h362v-38.9
					c0-5.3-4.3-9.6-9.6-9.6H-40.1c-5.3,0-9.6,4.3-9.6,9.6v92.7c0,5.3,4.3,9.6,9.6,9.6h354.4C319.6,452.8,323.9,448.5,323.9,443.2z"
					/>
			</g>
		</g>
	</g>
	<path id="XMLID_9_" class="st2" d="M-43.8,396.9L-43.8,396.9c0-3.3,2.7-5.9,5.9-5.9h217.3c3.3,0,5.9,2.7,5.9,5.9l0,0
		c0,3.3-2.7,5.9-5.9,5.9H-37.8C-41.1,402.9-43.8,400.2-43.8,396.9z"/>
</g>
<g id="XMLID_1_">
	<rect id="XMLID_91_" x="332.3" y="382.8" class="st3" width="61" height="48.3"/>
	<text id="XMLID_90_" transform="matrix(1 0 0 1 339.2786 409.5264)" class="st4 st5 st6">60%</text>
</g>
<polygon id="XMLID_40_" class="st7" points="-11.6,402.9 -20.9,402.9 -15.9,391 -6.6,391 "/>
<polygon id="XMLID_41_" class="st7" points="-29.8,402.9 -39.1,402.9 -34.1,391 -24.8,391 "/>
<polygon id="XMLID_5_" class="st7" points="7,402.9 -2.3,402.9 2.7,391 12,391 "/>
<polygon id="XMLID_11_" class="st7" points="25.6,402.9 16.3,402.9 21.3,391 30.6,391 "/>
<polygon id="XMLID_3_" class="st7" points="44.2,402.9 34.9,402.9 39.9,391 49.2,391 "/>
<polygon id="XMLID_14_" class="st7" points="62.7,402.9 53.4,402.9 58.4,391 67.7,391 "/>
<polygon id="XMLID_22_" class="st7" points="81.4,402.9 72.1,402.9 77.1,391 86.4,391 "/>
<polygon id="XMLID_46_" class="st7" points="100,402.9 90.7,402.9 95.7,391 105,391 "/>
<polygon id="XMLID_23_" class="st7" points="118.6,402.9 109.3,402.9 114.3,391 123.6,391 "/>
<polygon id="XMLID_28_" class="st7" points="137.1,402.9 127.8,402.9 132.8,391 142.1,391 "/>
<polygon id="XMLID_24_" class="st7" points="155.7,402.8 146.4,402.8 151.4,390.9 160.7,390.9 "/>
<polygon id="XMLID_57_" class="st7" points="174.2,402.8 165,402.8 170,390.9 179.2,390.9 "/>
</svg>
