<?xml version="1.0" encoding="utf-8"?>
<!-- Generator: Adobe Illustrator 19.0.0, SVG Export Plug-In . SVG Version: 6.00 Build 0)  -->
<svg version="1.1" id="Layer_1" xmlns="http://www.w3.org/2000/svg" xmlns:xlink="http://www.w3.org/1999/xlink" x="0px" y="0px"
	 viewBox="-65 325.9 480 142.1" style="enable-background:new -65 325.9 480 142.1;" xml:space="preserve">
<style type="text/css">
	.st0{fill:#C2392B;}
	.st1{fill:#EDEDED;}
	.st2{fill:#E8796B;}
	.st3{fill:none;}
	.st4{fill:#FFFFFF;}
	.st5{font-family:'JustAnotherHand-Regular';}
	.st6{font-size:42px;}
	.st7{fill:#EE4D3F;}
</style>
<g id="XMLID_2_">
	<g id="XMLID_12_">
		<g id="XMLID_13_">
			<g id="XMLID_19_">
				<g id="XMLID_20_">
					<g id="XMLID_21_">
						<g id="XMLID_36_">
							<path id="XMLID_37_" class="st0" d="M-37,451.8c-6.5,0-11.7-6.3-11.7-14.1V354c-0.1-7.8,5.2-14.1,11.7-14.1h424.4
								c6.5,0,11.7,6.3,11.7,14.1v83.7c0,7.8-5.2,14.1-11.7,14.1C387.4,451.8-37,451.8-37,451.8z"/>
						</g>
					</g>
				</g>
			</g>
			<g id="XMLID_15_">
				<path id="XMLID_16_" class="st1" d="M324.9,442.2v-38.8h-362c-4.1,0-7.5-3.4-7.5-7.5s3.4-7.5,7.5-7.5h362v-38.9
					c0-5.3-4.3-9.6-9.6-9.6H-39.1c-5.3,0-9.6,4.3-9.6,9.6v92.7c0,5.3,4.3,9.6,9.6,9.6h354.4C320.6,451.8,324.9,447.5,324.9,442.2z"
					/>
			</g>
		</g>
	</g>
	<path id="XMLID_9_" class="st2" d="M-42.8,395.9L-42.8,395.9c0-3.3,2.7-5.9,5.9-5.9H69.4c3.3,0,5.9,2.7,5.9,5.9l0,0
		c0,3.3-2.7,5.9-5.9,5.9H-36.8C-40.1,401.9-42.8,399.2-42.8,395.9z"/>
</g>
<g id="XMLID_1_">
	<rect id="XMLID_73_" x="333.3" y="381.8" class="st3" width="61" height="48.3"/>
	<text id="XMLID_72_" transform="matrix(1 0 0 1 339.2286 407.1756)" class="st4 st5 st6">30%</text>
</g>
<polygon id="XMLID_40_" class="st7" points="-10.6,401.9 -19.9,401.9 -14.9,390 -5.6,390 "/>
<polygon id="XMLID_41_" class="st7" points="-28.8,401.9 -38.1,401.9 -33.1,390 -23.8,390 "/>
<polygon id="XMLID_5_" class="st7" points="8,401.9 -1.3,401.9 3.7,390 13,390 "/>
<polygon id="XMLID_11_" class="st7" points="26.6,401.9 17.3,401.9 22.3,390 31.6,390 "/>
<polygon id="XMLID_3_" class="st7" points="45.2,401.9 35.9,401.9 40.9,390 50.2,390 "/>
<polygon id="XMLID_14_" class="st7" points="63.7,401.9 54.4,401.9 59.4,390 68.7,390 "/>
</svg>
