<?xml version="1.0" encoding="utf-8"?>
<!-- Generator: Adobe Illustrator 19.0.0, SVG Export Plug-In . SVG Version: 6.00 Build 0)  -->
<svg version="1.1" id="Layer_1" xmlns="http://www.w3.org/2000/svg" xmlns:xlink="http://www.w3.org/1999/xlink" x="0px" y="0px"
	 viewBox="-65 325.9 480 142.1" style="enable-background:new -65 325.9 480 142.1;" xml:space="preserve">
<style type="text/css">
	.st0{fill:#209D7F;}
	.st1{fill:#EDEDED;}
	.st2{fill:#19BC9C;}
	.st3{fill:none;}
	.st4{fill:#FFFFFF;}
	.st5{font-family:'JustAnotherHand-Regular';}
	.st6{font-size:42px;}
	.st7{fill:#50C4AF;}
</style>
<g id="XMLID_2_">
	<g id="XMLID_12_">
		<g id="XMLID_13_">
			<g id="XMLID_19_">
				<g id="XMLID_20_">
					<g id="XMLID_21_">
						<g id="XMLID_84_">
							<path id="XMLID_85_" class="st0" d="M-37,452.8c-6.5,0-11.7-6.3-11.7-14.1V355c-0.1-7.8,5.2-14.1,11.7-14.1h424.4
								c6.5,0,11.7,6.3,11.7,14.1v83.7c0,7.8-5.2,14.1-11.7,14.1C387.4,452.8-37,452.8-37,452.8z"/>
						</g>
					</g>
				</g>
			</g>
			<g id="XMLID_15_">
				<path id="XMLID_16_" class="st1" d="M324.9,443.2v-38.8h-362c-4.1,0-7.5-3.4-7.5-7.5s3.4-7.5,7.5-7.5h362v-38.9
					c0-5.3-4.3-9.6-9.6-9.6H-39.1c-5.3,0-9.6,4.3-9.6,9.6v92.7c0,5.3,4.3,9.6,9.6,9.6h354.4C320.6,452.8,324.9,448.5,324.9,443.2z"
					/>
			</g>
		</g>
	</g>
	<path id="XMLID_9_" class="st2" d="M-42.8,396.9L-42.8,396.9c0-3.3,2.7-5.9,5.9-5.9h328.3c3.3,0,5.9,2.7,5.9,5.9l0,0
		c0,3.3-2.7,5.9-5.9,5.9H-36.8C-40.1,402.9-42.8,400.2-42.8,396.9z"/>
</g>
<g id="XMLID_1_">
	<rect id="XMLID_109_" x="338.3" y="382.8" class="st3" width="61" height="48.3"/>
	<text id="XMLID_108_" transform="matrix(1 0 0 1 338.2286 411.8573)" class="st4 st5 st6">90%</text>
</g>
<polygon id="XMLID_40_" class="st7" points="-10.6,402.9 -19.9,402.9 -14.9,391 -5.6,391 "/>
<polygon id="XMLID_41_" class="st7" points="-28.8,402.9 -38.1,402.9 -33.1,391 -23.8,391 "/>
<polygon id="XMLID_5_" class="st7" points="8,402.9 -1.3,402.9 3.7,391 13,391 "/>
<polygon id="XMLID_11_" class="st7" points="26.6,402.9 17.3,402.9 22.3,391 31.6,391 "/>
<polygon id="XMLID_3_" class="st7" points="45.2,402.9 35.9,402.9 40.9,391 50.2,391 "/>
<polygon id="XMLID_14_" class="st7" points="63.7,402.9 54.4,402.9 59.4,391 68.7,391 "/>
<polygon id="XMLID_22_" class="st7" points="82.4,402.9 73.1,402.9 78.1,391 87.4,391 "/>
<polygon id="XMLID_46_" class="st7" points="101,402.9 91.7,402.9 96.7,391 106,391 "/>
<polygon id="XMLID_23_" class="st7" points="119.6,402.9 110.3,402.9 115.3,391 124.6,391 "/>
<polygon id="XMLID_28_" class="st7" points="138.1,402.9 128.8,402.9 133.8,391 143.1,391 "/>
<polygon id="XMLID_24_" class="st7" points="156.7,402.8 147.4,402.8 152.4,390.9 161.7,390.9 "/>
<polygon id="XMLID_57_" class="st7" points="175.2,402.8 166,402.8 171,390.9 180.2,390.9 "/>
<polygon id="XMLID_27_" class="st7" points="193.7,402.9 184.4,402.9 189.4,391 198.7,391 "/>
<polygon id="XMLID_64_" class="st7" points="212.3,402.9 203,402.9 208,391 217.3,391 "/>
<polygon id="XMLID_29_" class="st7" points="230.9,402.9 221.6,402.9 226.6,391 235.9,391 "/>
<polygon id="XMLID_69_" class="st7" points="249.5,402.9 240.2,402.9 245.2,391 254.5,391 "/>
<polygon id="XMLID_30_" class="st7" points="268.1,402.9 258.8,402.9 263.8,391 273.1,391 "/>
<polygon id="XMLID_75_" class="st7" points="286.7,402.9 277.4,402.9 282.4,391 291.7,391 "/>
</svg>
