<?xml version="1.0" encoding="utf-8"?>
<!-- Generator: Adobe Illustrator 19.0.0, SVG Export Plug-In . SVG Version: 6.00 Build 0)  -->
<svg version="1.1" id="Layer_1" xmlns="http://www.w3.org/2000/svg" xmlns:xlink="http://www.w3.org/1999/xlink" x="0px" y="0px"
	 viewBox="-66 325.9 478.1 142.1" style="enable-background:new -66 325.9 478.1 142.1;" xml:space="preserve">
<style type="text/css">
	.st0{fill:#2781B5;}
	.st1{fill:#EDEDED;}
	.st2{fill:#3A96D5;}
	.st3{fill:none;}
	.st4{fill:#FFFFFF;}
	.st5{font-family:'JustAnotherHand-Regular';}
	.st6{font-size:42px;}
	.st7{fill:#62B1EA;}
</style>
<g id="XMLID_2_">
	<g id="XMLID_12_">
		<g id="XMLID_13_">
			<g id="XMLID_19_">
				<g id="XMLID_20_">
					<g id="XMLID_21_">
						<g id="XMLID_78_">
							<path id="XMLID_79_" class="st0" d="M-39,452.8c-6.5,0-11.7-6.3-11.7-14.1V355c-0.1-7.8,5.2-14.1,11.7-14.1h424.4
								c6.5,0,11.7,6.3,11.7,14.1v83.7c0,7.8-5.2,14.1-11.7,14.1C385.4,452.8-39,452.8-39,452.8z"/>
						</g>
					</g>
				</g>
			</g>
			<g id="XMLID_15_">
				<path id="XMLID_16_" class="st1" d="M322.9,443.2v-38.8h-362c-4.1,0-7.5-3.4-7.5-7.5s3.4-7.5,7.5-7.5h362v-38.9
					c0-5.3-4.3-9.6-9.6-9.6H-41.1c-5.3,0-9.6,4.3-9.6,9.6v92.7c0,5.3,4.3,9.6,9.6,9.6h354.4C318.6,452.8,322.9,448.5,322.9,443.2z"
					/>
			</g>
		</g>
	</g>
	<path id="XMLID_9_" class="st2" d="M-44.8,396.9L-44.8,396.9c0-3.3,2.7-5.9,5.9-5.9h291.3c3.3,0,5.9,2.7,5.9,5.9l0,0
		c0,3.3-2.7,5.9-5.9,5.9H-38.8C-42.1,402.9-44.8,400.2-44.8,396.9z"/>
</g>
<g id="XMLID_1_">
	<rect id="XMLID_103_" x="331.3" y="382.8" class="st3" width="61" height="48.3"/>
	<text id="XMLID_102_" transform="matrix(1 0 0 1 339.2786 410.8573)" class="st4 st5 st6">80%</text>
</g>
<polygon id="XMLID_40_" class="st7" points="-12.6,402.9 -21.9,402.9 -16.9,391 -7.6,391 "/>
<polygon id="XMLID_41_" class="st7" points="-30.8,402.9 -40.1,402.9 -35.1,391 -25.8,391 "/>
<polygon id="XMLID_5_" class="st7" points="6,402.9 -3.3,402.9 1.7,391 11,391 "/>
<polygon id="XMLID_11_" class="st7" points="24.6,402.9 15.3,402.9 20.3,391 29.6,391 "/>
<polygon id="XMLID_3_" class="st7" points="43.2,402.9 33.9,402.9 38.9,391 48.2,391 "/>
<polygon id="XMLID_14_" class="st7" points="61.7,402.9 52.4,402.9 57.4,391 66.7,391 "/>
<polygon id="XMLID_22_" class="st7" points="80.4,402.9 71.1,402.9 76.1,391 85.4,391 "/>
<polygon id="XMLID_46_" class="st7" points="99,402.9 89.7,402.9 94.7,391 104,391 "/>
<polygon id="XMLID_23_" class="st7" points="117.6,402.9 108.3,402.9 113.3,391 122.6,391 "/>
<polygon id="XMLID_28_" class="st7" points="136.1,402.9 126.8,402.9 131.8,391 141.1,391 "/>
<polygon id="XMLID_24_" class="st7" points="154.7,402.8 145.4,402.8 150.4,390.9 159.7,390.9 "/>
<polygon id="XMLID_57_" class="st7" points="173.2,402.8 164,402.8 169,390.9 178.2,390.9 "/>
<polygon id="XMLID_27_" class="st7" points="191.7,402.9 182.4,402.9 187.4,391 196.7,391 "/>
<polygon id="XMLID_64_" class="st7" points="210.3,402.9 201,402.9 206,391 215.3,391 "/>
<polygon id="XMLID_29_" class="st7" points="228.9,402.9 219.6,402.9 224.6,391 233.9,391 "/>
<polygon id="XMLID_69_" class="st7" points="247.5,402.9 238.2,402.9 243.2,391 252.5,391 "/>
</svg>
