<?xml version="1.0" encoding="utf-8"?>
<!-- Generator: Adobe Illustrator 19.0.0, SVG Export Plug-In . SVG Version: 6.00 Build 0)  -->
<svg version="1.1" id="Layer_1" xmlns="http://www.w3.org/2000/svg" xmlns:xlink="http://www.w3.org/1999/xlink" x="0px" y="0px"
	 viewBox="-65 325.9 480 142.1" style="enable-background:new -65 325.9 480 142.1;" xml:space="preserve">
<style type="text/css">
	.st0{fill:#7E8C8D;}
	.st1{fill:#EDEDED;}
	.st2{fill:#AFBBBD;}
	.st3{fill:none;}
	.st4{fill:#FFFFFF;}
	.st5{font-family:'JustAnotherHand-Regular';}
	.st6{font-size:42px;}
	.st7{fill:#92A3A4;}
</style>
<g id="XMLID_2_">
	<g id="XMLID_12_">
		<g id="XMLID_13_">
			<g id="XMLID_19_">
				<g id="XMLID_20_">
					<g id="XMLID_21_">
						<g id="XMLID_36_">
							<path id="XMLID_38_" class="st0" d="M-37,452.8c-6.5,0-11.7-6.3-11.7-14.1V355c-0.1-7.8,5.2-14.1,11.7-14.1h424.4
								c6.5,0,11.7,6.3,11.7,14.1v83.7c0,7.8-5.2,14.1-11.7,14.1L-37,452.8L-37,452.8z"/>
						</g>
					</g>
				</g>
			</g>
			<g id="XMLID_15_">
				<path id="XMLID_16_" class="st1" d="M324.9,443.2v-38.8h-362c-4.1,0-7.5-3.4-7.5-7.5s3.4-7.5,7.5-7.5h362v-38.9
					c0-5.3-4.3-9.6-9.6-9.6H-39.1c-5.3,0-9.6,4.3-9.6,9.6v92.7c0,5.3,4.3,9.6,9.6,9.6h354.4C320.6,452.8,324.9,448.5,324.9,443.2z"
					/>
			</g>
		</g>
	</g>
	<path id="XMLID_9_" class="st2" d="M-42.8,396.9L-42.8,396.9c0-3.3,2.7-5.9,5.9-5.9h31.3c3.3,0,5.9,2.7,5.9,5.9l0,0
		c0,3.3-2.7,5.9-5.9,5.9h-31.2C-40.1,402.9-42.8,400.2-42.8,396.9z"/>
</g>
<g id="XMLID_1_">
	<rect id="XMLID_57_" x="333.3" y="383.8" class="st3" width="61" height="48.3"/>
	<text id="XMLID_56_" transform="matrix(1 0 0 1 340.2286 409.8348)" class="st4 st5 st6">10%</text>
</g>
<polygon id="XMLID_40_" class="st7" points="-10.6,402.9 -19.9,402.9 -14.9,391 -5.6,391 "/>
<polygon id="XMLID_41_" class="st7" points="-28.8,402.9 -38.1,402.9 -33.1,391 -23.8,391 "/>
</svg>
