<?xml version="1.0" encoding="utf-8"?>
<!-- Generator: Adobe Illustrator 16.0.0, SVG Export Plug-In . SVG Version: 6.00 Build 0)  -->
<!DOCTYPE svg PUBLIC "-//W3C//DTD SVG 1.1//EN" "http://www.w3.org/Graphics/SVG/1.1/DTD/svg11.dtd">
<svg version="1.1" id="Premier_plan" xmlns="http://www.w3.org/2000/svg" xmlns:xlink="http://www.w3.org/1999/xlink" x="0px"
	 y="0px" width="412.044px" height="277.141px" viewBox="0 0 412.044 277.141" enable-background="new 0 0 412.044 277.141"
	 xml:space="preserve">
<g>
	<path fill-rule="evenodd" clip-rule="evenodd" fill="#F7941E" d="M329.193,201.684c-0.827,3.264-2.185,5.127-3.588,4.861
		c-2.358-0.453-5.201-5.469-4.293-12.301c0.756-5.707,3.714-11.854,8.35-17.939C331.115,185.75,331.027,194.461,329.193,201.684z
		 M332.092,167.178c-3.489-14.813-10.303-30.672-19.896-45.454c-12.503-19.268-40.498-52.799-87.526-60.92l-0.694,4.002
		c45.511,7.855,72.676,40.418,84.813,59.129c9.834,15.15,16.727,31.813,19.899,47.03c-6.359,7.547-10.425,15.393-11.404,22.742
		c-1.188,8.967,2.942,15.939,7.55,16.826c0.247,0.047,0.593,0.094,1.007,0.094c1.98,0,5.534-1.043,7.287-7.943
		c2.22-8.748,2.139-19.275,0.011-30.58c9.131-10.225,22.741-19.93,38.28-26.624l-1.607-3.729
		C354.685,148.271,341.497,157.356,332.092,167.178z M407.498,120.742c-3.033-3.033-6.695-4.549-10.998-4.549
		c-4.306,0-7.967,1.516-10.998,4.549c-3.03,3.031-4.548,6.699-4.548,10.996c0,4.299,1.518,7.967,4.548,10.998
		c3.031,3.031,6.692,4.547,10.998,4.547c4.303,0,7.965-1.516,10.998-4.547c3.031-3.031,4.547-6.699,4.547-10.998
		C412.044,127.441,410.529,123.773,407.498,120.742z"/>
	<g>
		<g>
			<path fill-rule="evenodd" clip-rule="evenodd" fill="#3D505A" d="M183.099,239.075v-18.816h-2.998v11.336
				c0,0.914,0.028,1.854,0.057,2.627h-0.057c-0.429-0.773-0.942-1.484-1.971-2.826l-8.509-11.137h-3.026v18.816h2.969v-11.82
				c0-0.914,0-1.828-0.057-2.455h0.057c0.457,0.77,0.971,1.512,1.884,2.713l8.852,11.563H183.099z"/>
			<polygon fill-rule="evenodd" clip-rule="evenodd" fill="#3D505A" points="197.911,239.075 197.911,236.504 190.83,236.504 
				190.83,230.737 196.94,230.737 196.94,228.168 190.83,228.168 190.83,222.829 196.968,222.829 197.882,220.258 187.832,220.258 
				187.832,239.075 			"/>
			<path fill-rule="evenodd" clip-rule="evenodd" fill="#3D505A" d="M226.201,220.258h-3.083l-3.684,11.621
				c-0.314,1-0.543,1.826-0.742,2.77h-0.086c-0.229-0.914-0.6-1.799-0.942-2.855l-3.997-11.535h-3.056l1.285,3.568l-2.913,8.195
				c-0.313,0.943-0.656,1.828-0.884,2.713h-0.059c-0.256-0.914-0.513-1.799-0.827-2.742l-3.854-11.734h-3.312l6.681,18.932h2.369
				l3.228-8.797c0.313-0.826,0.628-1.77,0.913-2.768h0.057c0.286,0.998,0.629,1.971,0.914,2.797l3.17,8.768h2.426L226.201,220.258z"
				/>
			<path fill-rule="evenodd" clip-rule="evenodd" fill="#3D505A" d="M250.817,237.704l-0.856-2.225
				c-1.342,0.74-2.884,1.227-4.54,1.227c-4.054,0-6.51-3-6.51-7.053c0-3.826,2.398-7.023,6.71-7.023
				c1.827,0,3.283,0.457,4.769,1.369l0.057-2.855c-1.056-0.57-2.77-1.057-4.854-1.057c-5.997,0-9.937,4.34-9.937,9.795
				c0,5.369,3.454,9.479,9.309,9.479C246.906,239.36,248.847,238.875,250.817,237.704z"/>
			<polygon fill-rule="evenodd" clip-rule="evenodd" fill="#3D505A" points="269.797,239.075 269.797,220.258 266.799,220.258 
				266.799,228.196 257.292,228.196 257.292,220.258 254.293,220.258 254.293,239.075 257.292,239.075 257.292,230.823 
				266.799,230.823 266.799,239.075 			"/>
			<path fill-rule="evenodd" clip-rule="evenodd" fill="#3D505A" d="M289.581,239.075l-7.452-18.875h-2.085l-7.279,18.875h2.968
				l1.771-4.797h6.967l1.885,4.797H289.581z M283.5,231.764h-5.055l1.856-5.053c0.343-0.885,0.571-1.629,0.742-2.285h0.028
				c0.115,0.602,0.371,1.371,0.685,2.314L283.5,231.764z"/>
			<polygon fill-rule="evenodd" clip-rule="evenodd" fill="#3D505A" points="302.379,239.075 302.379,236.504 295.497,236.504 
				295.497,220.258 292.528,220.258 292.528,239.075 			"/>
			<polygon fill-rule="evenodd" clip-rule="evenodd" fill="#3D505A" points="315.177,239.075 315.177,236.504 308.295,236.504 
				308.295,220.258 305.327,220.258 305.327,239.075 			"/>
			<polygon fill-rule="evenodd" clip-rule="evenodd" fill="#3D505A" points="328.206,239.075 328.206,236.504 321.125,236.504 
				321.125,230.737 327.235,230.737 327.235,228.168 321.125,228.168 321.125,222.829 327.263,222.829 328.177,220.258 
				318.125,220.258 318.125,239.075 			"/>
			<path fill-rule="evenodd" clip-rule="evenodd" fill="#3D505A" d="M348.671,239.075v-18.816h-2.997v11.336
				c0,0.914,0.027,1.854,0.057,2.627h-0.057c-0.43-0.773-0.942-1.484-1.97-2.826l-8.51-11.137h-3.025v18.816h2.968v-11.82
				c0-0.914,0-1.828-0.056-2.455h0.056c0.458,0.77,0.972,1.512,1.886,2.713l8.852,11.563H348.671z"/>
			<path fill-rule="evenodd" clip-rule="evenodd" fill="#3D505A" d="M368.795,237.704v-7.996h-3v6.484
				c-0.685,0.371-1.769,0.629-3.169,0.629c-4.312,0-6.967-2.971-6.967-7.197c0-3.91,2.313-6.994,7.195-6.994
				c2.057,0,3.854,0.686,5.226,1.398l0.029-2.885c-1.228-0.514-3.056-1.057-5.454-1.057c-6.14,0-10.223,4.141-10.223,9.822
				c0,5.426,3.685,9.451,9.423,9.451C364.796,239.36,367.281,238.504,368.795,237.704z"/>
			<polygon fill-rule="evenodd" clip-rule="evenodd" fill="#3D505A" points="383.326,239.075 383.326,236.504 376.244,236.504 
				376.244,230.737 382.355,230.737 382.355,228.168 376.244,228.168 376.244,222.829 382.383,222.829 383.297,220.258 
				373.246,220.258 373.246,239.075 			"/>
			<path fill-rule="evenodd" clip-rule="evenodd" fill="#3D505A" d="M398.253,234.133c0-5.766-8.224-5.652-8.224-9.363
				c0-1.484,1.343-2.17,2.969-2.17c1.542,0,2.999,0.543,4.282,1.313l0.029-2.799c-0.97-0.512-2.455-1.027-4.453-1.027
				c-3.798,0-5.91,2.285-5.91,5.025c0,1.457,0.513,2.514,1.283,3.369c2.285,2.543,6.824,3.113,6.824,5.998
				c0,1.713-1.798,2.396-3.34,2.396c-1.771,0-3.256-0.74-4.197-1.396l-1.256,2.254c1.198,0.771,2.969,1.627,5.568,1.627
				C395.455,239.36,398.253,237.305,398.253,234.133z"/>
			<path fill-rule="evenodd" clip-rule="evenodd" fill="#3D505A" d="M404.45,235.733l-2.856,0.543
				c0.286,2.113,0.201,3.627-0.801,5.654l1.714,0.801C404.333,240.702,404.934,238.219,404.45,235.733z"/>
		</g>
		<g>
			<path fill-rule="evenodd" clip-rule="evenodd" fill="#3D505A" d="M183.1,265.2v-18.816h-2.998v11.336
				c0,0.914,0.029,1.854,0.057,2.627h-0.057c-0.428-0.773-0.942-1.484-1.968-2.826l-8.509-11.137h-3.029V265.2h2.97v-11.822
				c0-0.914,0-1.828-0.059-2.455h0.059c0.457,0.771,0.971,1.512,1.885,2.713l8.85,11.564H183.1z"/>
			<polygon fill-rule="evenodd" clip-rule="evenodd" fill="#3D505A" points="197.911,265.2 197.911,262.629 190.831,262.629 
				190.831,256.86 196.941,256.86 196.941,254.292 190.831,254.292 190.831,248.952 196.968,248.952 197.883,246.383 
				187.832,246.383 187.832,265.2 			"/>
			<path fill-rule="evenodd" clip-rule="evenodd" fill="#3D505A" d="M226.203,246.383h-3.084l-3.685,11.621
				c-0.313,1-0.542,1.826-0.741,2.77h-0.086c-0.229-0.914-0.6-1.799-0.942-2.855l-3.998-11.535h-3.055l1.286,3.568l-2.913,8.195
				c-0.315,0.943-0.658,1.826-0.886,2.711h-0.057c-0.258-0.912-0.515-1.797-0.828-2.74l-3.855-11.734h-3.313l6.681,18.93h2.369
				l3.229-8.795c0.313-0.826,0.626-1.77,0.913-2.768h0.058c0.285,0.998,0.628,1.969,0.912,2.797l3.169,8.766h2.429L226.203,246.383z
				"/>
			<rect x="236.627" y="246.383" fill-rule="evenodd" clip-rule="evenodd" fill="#3D505A" width="2.997" height="18.816"/>
			<path fill-rule="evenodd" clip-rule="evenodd" fill="#3D505A" d="M259.893,255.606c0-5.396-3.427-9.223-10.363-9.223h-5.17V265.2
				h5.056C256.208,265.2,259.893,261.116,259.893,255.606z M256.724,255.663c0,3.684-1.942,6.967-7.168,6.967h-2.197v-13.648h2.197
				C254.41,248.981,256.724,251.836,256.724,255.663z"/>
			<polygon fill-rule="evenodd" clip-rule="evenodd" fill="#3D505A" points="273.734,265.2 273.734,262.629 266.651,262.629 
				266.651,256.86 272.761,256.86 272.761,254.292 266.651,254.292 266.651,248.952 272.791,248.952 273.705,246.383 
				263.652,246.383 263.652,265.2 			"/>
			<path fill-rule="evenodd" clip-rule="evenodd" fill="#3D505A" d="M292.742,265.2l-7.452-18.875h-2.082l-7.282,18.875h2.971
				l1.769-4.799h6.969l1.883,4.799H292.742z M286.661,257.889h-5.053l1.856-5.053c0.341-0.885,0.569-1.629,0.741-2.285h0.027
				c0.116,0.6,0.372,1.371,0.688,2.314L286.661,257.889z"/>
			<path fill-rule="evenodd" clip-rule="evenodd" fill="#3D505A" d="M306.654,260.258c0-5.766-8.225-5.652-8.225-9.363
				c0-1.486,1.344-2.172,2.973-2.172c1.541,0,2.996,0.543,4.279,1.313l0.029-2.797c-0.97-0.514-2.454-1.027-4.455-1.027
				c-3.796,0-5.908,2.283-5.908,5.025c0,1.455,0.513,2.514,1.283,3.369c2.285,2.541,6.825,3.113,6.825,5.996
				c0,1.713-1.799,2.398-3.34,2.398c-1.771,0-3.257-0.742-4.197-1.398l-1.257,2.256c1.198,0.77,2.968,1.625,5.568,1.625
				C303.856,265.483,306.654,263.428,306.654,260.258z"/>
		</g>
		<path fill-rule="evenodd" clip-rule="evenodd" fill="#3D505A" d="M66.59,85.748c9.421,0,16.474,2.861,21.107,8.381
			c4.708,5.611,7.187,15.248,7.187,28.854c0,5.777-0.435,11.045-1.3,15.646c-0.83,4.441-2.363,8.289-4.534,11.453
			c-2.121,3.092-4.989,5.473-8.547,7.068c-3.603,1.625-8.374,2.473-14.213,2.473c-9.697,0-16.175-2.883-20.068-8.633
			c-4.035-5.961-6.145-15.34-6.145-28.008c0-4.439,0.297-9,0.875-13.549c0.562-4.393,1.741-8.449,3.503-12.066
			c1.677-3.439,4.274-6.266,7.745-8.398C55.629,86.859,60.445,85.748,66.59,85.748z M104.826,234.897
			c0,32.93-31.527,34.322-38.136,34.322c-11.009,0-41.214-0.303-41.214-34.322c0-35.078,36.771-34.557,57.687-32.906
			C92.417,208.241,104.826,219.362,104.826,234.897z M226.514,18.328c1.438,3.398,2.166,6.5,2.166,9.219
			c0,4.186-1.182,7.926-3.506,11.123c-2.52,3.459-8.059,5.877-13.47,5.877c-2.942,0-5.761-0.707-8.151-2.049
			c-3.624-2.035-5.385-5.109-5.385-9.404c0-3.619,1.026-6.912,3.05-9.787c1.679-2.389,2.5-5.016,2.5-8.027
			c0-3.615-1.384-5.908-4.346-7.215c-1.065-0.469-2.692-0.727-4.593-0.727c-6.349,0-15.022,2.805-20.088,9.07
			c-5.585,6.918-8.419,17.6-8.419,31.754v35.172h57.178v128.352h-27.461V92.623h-29.716v119.063h-27.449l-0.017-119.063
			l-30.251-0.002c11.798,11.709,12.62,26.912,12.62,31.256c0,16.918-14.06,36.897-38.185,41.877
			c0,14.367,24.571,26.791,35.392,36.572c25.697,23.23,12.143,57.215-15.337,67.676C49.399,290.428,0,263.178,0,236.575
			c0-29.309,35.524-44.227,65.897-44.227c4.606,0,8.87,0.119,12.765,0.311c-3.016-3.473-8.689-13.316-8.689-24.939
			c-0.625,0.016-1.254,0.021-1.892,0.021c-36.695,0-54.589-24.077-54.589-42.967c0-20.791,17.531-47.145,53.1-47.145
			c11.197,0,20.672,2.904,27.613,5.705h44.603V73.275c0-6.863,0.35-12.883,1.039-17.877c0.679-5,1.63-9.504,2.823-13.385
			c1.195-3.883,2.612-7.32,4.212-10.223c1.609-2.906,3.436-5.592,5.425-7.977c5.84-7.418,12.194-13.035,19.401-17.143
			C179.251,2.368,187.552,0,196.377,0c4.403,0,8.52,0.609,11.581,1.717c4.409,1.602,8.37,4.018,11.768,7.186
			C222.789,11.764,225.07,14.936,226.514,18.328z"/>
	</g>
</g>
</svg>
